<?xml version="1.0" encoding="UTF-8" standalone="no"?>
<svg
   xmlns:dc="http://purl.org/dc/elements/1.1/"
   xmlns:cc="http://creativecommons.org/ns#"
   xmlns:rdf="http://www.w3.org/1999/02/22-rdf-syntax-ns#"
   xmlns:svg="http://www.w3.org/2000/svg"
   xmlns="http://www.w3.org/2000/svg"
   xmlns:sodipodi="http://sodipodi.sourceforge.net/DTD/sodipodi-0.dtd"
   xmlns:inkscape="http://www.inkscape.org/namespaces/inkscape"
   width="23.477015mm"
   height="25.498619mm"
   viewBox="0 0 23.477015 25.498619"
   version="1.1"
   id="svg61"
   inkscape:version="1.0.1 (3bc2e813f5, 2020-09-07)"
   sodipodi:docname="r.svg">
  <defs
     id="defs55" />
  <sodipodi:namedview
     id="base"
     pagecolor="#ffffff"
     bordercolor="#666666"
     borderopacity="1.0"
     inkscape:pageopacity="0.0"
     inkscape:pageshadow="2"
     inkscape:zoom="0.35"
     inkscape:cx="107.22318"
     inkscape:cy="756.75779"
     inkscape:document-units="mm"
     inkscape:current-layer="layer1"
     inkscape:document-rotation="0"
     showgrid="false"
     inkscape:window-width="1267"
     inkscape:window-height="1160"
     inkscape:window-x="2050"
     inkscape:window-y="0"
     inkscape:window-maximized="0" />
  <metadata
     id="metadata58">
    <rdf:RDF>
      <cc:Work
         rdf:about="">
        <dc:format>image/svg+xml</dc:format>
        <dc:type
           rdf:resource="http://purl.org/dc/dcmitype/StillImage" />
        <dc:title></dc:title>
      </cc:Work>
    </rdf:RDF>
  </metadata>
  <g
     inkscape:label="Layer 1"
     inkscape:groupmode="layer"
     id="layer1"
     transform="translate(-77.463868,52.058831)">
    <path
       d="m 97.553426,-27.24313 v 0 q -0.257789,-0.488444 -0.90905,-0.99498 -0.651258,-0.502013 -1.564832,-0.990458 -0.90905,-0.488445 -1.953779,-0.945231 -1.040206,-0.456787 -2.048754,-0.895483 -1.01307,-0.438695 -1.890463,-0.832165 v 0 q -0.619601,-0.257791 -1.076387,-0.520103 v 0 q 0.945231,0.551763 1.98996,1.008548 v 0 q 1.203021,0.556285 2.424133,1.139704 1.221112,0.587944 2.360817,1.239203 1.139704,0.65126 2.084936,1.496993 v 0 q -0.945232,-0.262312 -2.378908,-0.863823 -1.433675,-0.601511 -2.912578,-1.334179 -1.483424,-0.732667 -2.867352,-1.483425 -1.383925,-0.746234 -2.229659,-1.302519 v 0 l 0.226132,-0.289448 q -0.909051,-0.619602 -1.854282,-1.433676 -0.94523,-0.814076 -1.465334,-1.790966 v 0 q -0.357289,1.528653 -0.425127,2.93067 -0.06332,1.397494 -0.06332,2.668356 v 0 q 0,0.456786 0.226132,0.863824 0.230655,0.407036 0.230655,0.764325 v 0 q 0,0.488445 -0.456787,0.587944 v 0 q -0.262313,-0.619602 -0.388946,-1.239203 v 0 q -0.131157,-0.619601 -0.198997,-1.234681 v 0 q 0,0.65126 0.06784,1.266338 v 0 q 0.09498,0.651261 0.32563,1.302519 v 0 l -0.488445,0.198997 0.293972,0.388947 q -0.06784,0.357289 -0.280404,0.669351 -0.208041,0.307539 -0.633169,0.307539 v 0 q -0.520103,0 -0.832165,-0.569853 -0.307539,-0.569852 -0.488445,-1.365836 -0.176383,-0.800507 -0.226132,-1.628148 -0.04975,-0.832167 -0.04975,-1.383928 v 0 q 0,-1.108046 0.01809,-2.184434 0.01356,-1.071865 0.08141,-2.179911 v 0 q -0.162815,1.040206 -0.180906,2.116595 -0.01356,1.071864 -0.01356,2.148252 v 0 q 0,1.139704 0.126635,2.342726 0.131157,1.207543 0.393469,2.31559 v 0 q -0.425128,-0.39347 -0.637692,-0.881915 -0.208041,-0.488444 -0.325629,-1.026637 -0.113066,-0.533673 -0.162815,-1.089956 -0.04523,-0.551761 -0.08141,-1.071865 v 0 l 0.393469,-0.0995 q -0.131156,-0.488443 -0.162816,-0.994978 -0.03166,-0.502013 -0.03166,-1.022117 v 0 q 0,-1.139704 0.162816,-2.234181 0.162815,-1.089956 0.162815,-2.229662 v 0 -0.388946 l -0.03618,-0.814075 h -0.194475 q -0.06332,1.56031 -0.176383,3.125142 -0.117587,1.564833 -0.149246,3.156801 v 0 q -0.03166,-0.325629 -0.03166,-0.615079 v 0 -0.6196 q 0,-2.378908 0.244223,-4.671886 0.244222,-2.297499 0.506535,-4.640225 v 0 q 0.06332,-0.750757 0.388948,-1.383928 0.325629,-0.637691 0.520104,-1.320609 v 0 q 0.131156,0.0995 0.325629,0.113066 0.194473,0.01809 0.357289,0.03166 0.162813,0.01809 0.29397,0.117588 0.131156,0.09498 0.131156,0.325629 v 0 q 0,0.126635 -0.03166,0.257791 v 0 l -0.06784,0.262313 0.293972,0.09498 q 0.230654,-0.357289 0.587942,-0.682918 0.357289,-0.325631 0.814074,-0.325631 v 0 q 0.357289,0 0.520104,0.293972 0.162816,0.293972 0.162816,0.619601 v 0 q 0,0.194473 -0.04975,0.814074 -0.04975,0.619602 -0.131156,1.433676 -0.08141,0.814076 -0.176383,1.741216 -0.0995,0.927141 -0.180906,1.741215 -0.08141,0.814076 -0.144725,1.383928 -0.06784,0.569852 -0.06784,0.701008 v 0 l 0.782415,-1.759305 q -0.09498,0.29397 -0.176382,0.488445 -0.08141,0.194473 -0.149247,0.388946 -0.06332,0.198996 -0.176383,0.425128 -0.117589,0.226132 -0.312062,0.587943 v 0 0.452263 l 1.076387,-2.442224 q 0.520104,0 1.026639,-0.01356 0.502012,-0.01809 1.022116,-0.113066 v 0 l 0.32563,-0.06784 q -0.714577,0 -1.121614,-0.01356 -0.407038,-0.01809 -0.764326,-0.08141 v 0 q 1.302519,0 2.586947,-0.04975 1.288953,-0.04975 2.623131,-0.04975 v 0 q 1.171363,0 2.329158,-0.06332 1.153273,-0.06784 2.080413,-0.456786 0.931664,-0.39347 1.515084,-1.207544 0.587942,-0.814074 0.587942,-2.311068 v 0 q 0,-1.528652 -0.393469,-2.473882 -0.388948,-0.945235 -1.121615,-1.483427 -0.732667,-0.533671 -1.840712,-0.714577 -1.108046,-0.180906 -2.505541,-0.180906 v 0 q -2.867352,0 -5.766362,0.262313 -2.894487,0.262313 -5.662343,0.976889 v 0 q -0.06784,-0.262313 -0.0995,-0.470354 -0.03166,-0.212563 -0.162816,-0.375379 v 0 q 0,-0.194473 0.357289,-0.357289 0.357288,-0.162813 0.814076,-0.262312 0.456786,-0.0995 0.863824,-0.162814 0.407036,-0.06332 0.538192,-0.0995 v 0 -0.388946 q -0.230653,0.03166 -0.782415,0.06332 -0.551763,0.03618 -1.203022,0.03618 v 0 q -0.881914,0 -1.62815,-0.117588 -0.750758,-0.113066 -0.750758,-0.470354 v 0 q 0,-0.388948 0.863824,-0.750758 0.863824,-0.357288 2.198002,-0.664827 1.334178,-0.312063 2.93067,-0.538195 1.596491,-0.226132 3.075392,-0.407038 1.483425,-0.180904 2.636697,-0.262312 1.157796,-0.08141 1.614582,-0.08141 v 0 q 2.342725,0 4.233188,0.474876 1.88594,0.470354 3.20655,1.546743 1.320609,1.071864 2.017097,2.817602 0.70101,1.741216 0.70101,4.278414 v 0 q 0,2.116596 -0.79599,3.600021 -0.800503,1.483425 -2.134681,2.410565 -1.334178,0.92714 -3.061826,1.365836 -1.723124,0.438697 -3.581928,0.438697 v 0 q -0.520104,0 -1.022116,-0.03166 -0.506535,-0.03166 -1.026639,-0.06332 v 0 q 0.357289,0.226132 1.189453,0.619602 0.827643,0.388945 1.854283,0.87739 1.026637,0.488445 2.148252,1.02664 1.126137,0.538192 2.035187,1.040206 0.913573,0.506535 1.496992,0.945231 0.587944,0.438695 0.587944,0.701008 v 0 l -0.162816,0.194479 q -1.076387,-0.782417 -2.216092,-1.365838 -1.139704,-0.587942 -2.324635,-1.108046 -1.189454,-0.520102 -2.396999,-1.008547 v 0 q -1.139703,-0.488445 -2.279409,-1.139705 v 0 q 1.108047,0.65126 2.216093,1.139705 v 0 l 2.311068,1.040206 q 1.171362,0.520104 2.297499,1.089956 1.121613,0.569852 2.166343,1.352269 v 0 l -0.425129,0.388945 q 0.226133,0.162816 0.538195,0.443219 0.307539,0.275882 0.58342,0.601511 0.280404,0.325629 0.474877,0.664828 0.194474,0.343719 0.194474,0.637691 v 0 q 0,0.420605 -0.388947,0.420605 v 0 q -0.39347,0 -0.850255,-0.226132 -0.452264,-0.22613 -0.814076,-0.357286 z M 90.45741,-38.902489 v 0 q -0.65126,0 -1.352269,0.01809 -0.70101,0.01356 -1.415585,0.01356 v 0 q 0.814074,0.03618 1.691465,0.08141 0.881914,0.04975 1.790964,0.04975 v 0 q 1.139705,0 2.229661,-0.144725 1.094478,-0.149247 1.940211,-0.619601 0.845734,-0.470355 1.352269,-1.302519 0.502012,-0.832165 0.502012,-2.198003 v 0 q 0,-0.456786 -0.06332,-0.877391 -0.06784,-0.425128 -0.162814,-0.881914 v 0 H 96.77553 q 0.194474,0.782416 0.194474,1.59649 v 0 q 0,1.465335 -0.520104,2.311068 -0.524625,0.845734 -1.402018,1.288952 -0.877391,0.438696 -2.066844,0.551762 -1.189454,0.113066 -2.523631,0.113066 z m -5.766363,0.719099 v 0 q 1.30252,0.06332 2.654788,0.08141 1.352268,0.01357 2.785944,0.01357 v 0 q 0.845733,0 1.691467,-0.04975 0.845733,-0.04523 1.62815,-0.208042 v 0 q -0.357289,0.06332 -0.714577,0.06332 v 0 H 92.0539 q -0.39347,0 -0.945231,-0.01809 -0.556285,-0.01356 -1.207544,-0.04523 -0.65126,-0.03618 -1.365837,-0.04975 -0.714575,-0.01809 -1.402016,-0.01809 v 0 q -0.746236,0 -1.365837,0.03166 -0.619602,0.03618 -1.076388,0.198995 z m -1.234679,2.505541 v 0 q 0.651259,0.845733 1.316086,1.5784 0.669351,0.732668 1.515085,1.383928 v 0 q -0.782417,-0.551763 -1.578401,-1.334178 -0.795984,-0.782417 -1.25277,-1.62815 z m 4.816607,-0.262313 v 0 q 0.65126,0.06784 1.302521,0.0995 v 0 q 0.619601,0.03166 1.175884,0.06332 v 0 q -0.456786,-0.03166 -0.913571,-0.09497 v 0 q -0.520104,-0.0995 -1.040208,-0.0995 v 0 h -0.262313 q -0.131157,0 -0.262313,0.03166 z m -3.676903,-2.148253 v -0.09498 q -0.03166,0.09498 -0.180905,0.388952 -0.144724,0.293972 -0.293971,0.633169 -0.144725,0.343721 -0.275882,0.637692 -0.131156,0.293971 -0.131156,0.388947 v 0 l 0.06784,-0.06332 z m 4.328163,3.450774 -0.940708,-0.68292 h -0.0995 q 0.456786,0.357289 1.040206,0.68292 z m -4.884446,-1.365838 -0.06332,0.131157 q 0.06332,0.162815 0.212565,0.375379 0.144723,0.208041 0.375378,0.438695 v 0 q -0.198996,-0.230654 -0.325631,-0.474876 -0.131156,-0.244223 -0.198994,-0.470355 z m 3.943738,3.518612 -0.162814,-0.0995 q 0.09497,0.06332 0.162814,0.0995 z"
       fill="#009688"
       id="path32"
       style="stroke-width:0.169991" />
  </g>
</svg>
