<?xml version="1.0" encoding="UTF-8" standalone="no"?>
<svg
   xmlns:dc="http://purl.org/dc/elements/1.1/"
   xmlns:cc="http://creativecommons.org/ns#"
   xmlns:rdf="http://www.w3.org/1999/02/22-rdf-syntax-ns#"
   xmlns:svg="http://www.w3.org/2000/svg"
   xmlns="http://www.w3.org/2000/svg"
   xmlns:sodipodi="http://sodipodi.sourceforge.net/DTD/sodipodi-0.dtd"
   xmlns:inkscape="http://www.inkscape.org/namespaces/inkscape"
   width="127.60721mm"
   height="25.498602mm"
   viewBox="0 0 127.60721 25.498602"
   version="1.1"
   id="svg102"
   inkscape:version="1.0.1 (3bc2e813f5, 2020-09-07)"
   sodipodi:docname="recepturer.svg">
  <defs
     id="defs96" />
  <sodipodi:namedview
     id="base"
     pagecolor="#ffffff"
     bordercolor="#666666"
     borderopacity="1.0"
     inkscape:pageopacity="0.0"
     inkscape:pageshadow="2"
     inkscape:zoom="0.35"
     inkscape:cx="-518.85342"
     inkscape:cy="531.04343"
     inkscape:document-units="mm"
     inkscape:current-layer="layer1"
     inkscape:document-rotation="0"
     showgrid="false"
     inkscape:window-width="1267"
     inkscape:window-height="1160"
     inkscape:window-x="2102"
     inkscape:window-y="0"
     inkscape:window-maximized="0" />
  <metadata
     id="metadata99">
    <rdf:RDF>
      <cc:Work
         rdf:about="">
        <dc:format>image/svg+xml</dc:format>
        <dc:type
           rdf:resource="http://purl.org/dc/dcmitype/StillImage" />
        <dc:title></dc:title>
      </cc:Work>
    </rdf:RDF>
  </metadata>
  <g
     inkscape:label="Layer 1"
     inkscape:groupmode="layer"
     id="layer1"
     transform="translate(-243.1133,-7.661427)">
    <path
       d="m 256.90041,25.294717 v 0 q -0.17693,-0.335222 -0.62389,-0.682861 -0.44696,-0.344533 -1.07395,-0.679755 -0.62389,-0.335224 -1.34089,-0.648718 -0.7139,-0.313495 -1.40607,-0.614575 -0.69528,-0.301079 -1.29744,-0.57112 v 0 q -0.42523,-0.176922 -0.73873,-0.35695 v 0 q 0.64872,0.378677 1.36572,0.692172 v 0 q 0.82564,0.381781 1.6637,0.782186 0.83806,0.403509 1.62024,0.850471 0.78219,0.446964 1.4309,1.027396 v 0 q -0.64871,-0.180027 -1.63265,-0.592848 -0.98394,-0.41282 -1.99892,-0.915653 -1.01809,-0.502834 -1.96788,-1.018083 -0.9498,-0.512145 -1.53023,-0.893926 v 0 l 0.1552,-0.198651 q -0.62389,-0.425236 -1.27261,-0.98394 -0.64872,-0.558703 -1.00566,-1.229147 v 0 q -0.24521,1.04912 -0.29177,2.011333 -0.0435,0.959109 -0.0435,1.831308 v 0 q 0,0.313494 0.1552,0.592847 0.1583,0.279352 0.1583,0.524561 v 0 q 0,0.335222 -0.3135,0.403509 v 0 Q 246.732,24.199035 246.64509,23.7738 v 0 q -0.09,-0.425236 -0.13658,-0.847367 v 0 q 0,0.446962 0.0466,0.869095 v 0 q 0.0652,0.446962 0.22349,0.893926 v 0 l -0.33523,0.136572 0.20176,0.266937 q -0.0466,0.245208 -0.19245,0.459378 -0.14278,0.211066 -0.43454,0.211066 v 0 q -0.35695,0 -0.57112,-0.391093 -0.21107,-0.391093 -0.33523,-0.937381 -0.12105,-0.549391 -0.15519,-1.117407 -0.0341,-0.57112 -0.0341,-0.949797 v 0 q 0,-0.760459 0.0124,-1.49919 0.009,-0.735627 0.0559,-1.496084 v 0 q -0.11174,0.7139 -0.12416,1.452629 -0.009,0.735627 -0.009,1.474358 v 0 q 0,0.782186 0.0869,1.607826 0.09,0.828745 0.27004,1.589202 v 0 q -0.29176,-0.270039 -0.43765,-0.605263 -0.14278,-0.335221 -0.22348,-0.704586 -0.0776,-0.366262 -0.11174,-0.748043 -0.031,-0.378677 -0.0559,-0.735627 v 0 l 0.27004,-0.06828 q -0.09,-0.335229 -0.11174,-0.682867 -0.0217,-0.344534 -0.0217,-0.701482 v 0 q 0,-0.782186 0.11174,-1.533333 0.11175,-0.748043 0.11175,-1.530227 v 0 -0.266937 l -0.0248,-0.558704 h -0.13347 q -0.0434,1.070849 -0.12105,2.144802 -0.0807,1.073953 -0.10243,2.16653 v 0 q -0.0217,-0.223482 -0.0217,-0.422131 v 0 -0.425238 q 0,-1.632656 0.16761,-3.206338 0.16761,-1.576787 0.34764,-3.184613 v 0 q 0.0435,-0.51525 0.26693,-0.949797 0.22348,-0.43765 0.35695,-0.906342 v 0 q 0.09,0.06829 0.22348,0.0776 0.13347,0.01241 0.24521,0.02173 0.11174,0.01241 0.20176,0.0807 0.09,0.06518 0.09,0.223482 v 0 q 0,0.08691 -0.0217,0.176923 v 0 l -0.0466,0.180027 0.20176,0.06518 q 0.1583,-0.245208 0.40351,-0.46869 0.2452,-0.223482 0.5587,-0.223482 v 0 q 0.24521,0 0.35695,0.201756 0.11174,0.201753 0.11174,0.425235 v 0 q 0,0.133468 -0.0341,0.558704 -0.0342,0.425235 -0.09,0.983939 -0.0559,0.558704 -0.12105,1.195005 -0.0683,0.636303 -0.12416,1.195007 -0.0559,0.558704 -0.0993,0.949796 -0.0466,0.391094 -0.0466,0.481107 v 0 l 0.53698,-1.207421 q -0.0652,0.201753 -0.12106,0.335222 -0.0559,0.133468 -0.10243,0.266936 -0.0435,0.136571 -0.12105,0.291768 -0.0807,0.155194 -0.21417,0.403509 v 0 0.310389 l 0.73873,-1.676111 q 0.35695,0 0.70459,-0.0093 0.34454,-0.01241 0.70149,-0.0776 v 0 l 0.22348,-0.04656 q -0.49042,0 -0.76977,-0.0093 -0.27935,-0.01241 -0.52456,-0.05587 v 0 q 0.89392,0 1.77543,-0.03414 0.88462,-0.03414 1.80027,-0.03414 v 0 q 0.80391,0 1.59852,-0.04346 0.79149,-0.04656 1.4278,-0.313494 0.6394,-0.27004 1.0398,-0.828744 0.40351,-0.558704 0.40351,-1.5861 v 0 q 0,-1.04912 -0.27004,-1.697838 -0.26693,-0.648709 -0.76977,-1.018075 -0.50283,-0.36626 -1.26329,-0.490417 -0.76046,-0.124156 -1.71957,-0.124156 v 0 q -1.96787,0 -3.95748,0.180026 -1.9865,0.180027 -3.8861,0.670445 v 0 q -0.0466,-0.180027 -0.0683,-0.322807 -0.0217,-0.145883 -0.11174,-0.257625 v 0 q 0,-0.133468 0.2452,-0.245208 0.24521,-0.11174 0.55871,-0.180027 0.31349,-0.06828 0.59285,-0.11174 0.27935,-0.04345 0.36936,-0.06829 v 0 -0.266935 q -0.1583,0.02173 -0.53697,0.04345 -0.37868,0.02483 -0.82564,0.02483 v 0 q -0.60527,0 -1.11741,-0.0807 -0.51525,-0.0776 -0.51525,-0.322809 v 0 q 0,-0.2669365 0.59285,-0.515249 0.59284,-0.2452084 1.5085,-0.4562741 0.91565,-0.2141698 2.01133,-0.3693663 1.09568,-0.1551948 2.11066,-0.2793511 1.01808,-0.1241562 1.80958,-0.1800271 0.7946,-0.055871 1.10809,-0.055871 v 0 q 1.60783,0 2.90527,0.3259116 1.29433,0.3228058 2.20067,1.0615367 0.90634,0.7356273 1.38434,1.9337363 0.48111,1.195006 0.48111,2.936299 v 0 q 0,1.452631 -0.54629,2.470713 -0.54939,1.018084 -1.46505,1.654385 -0.91565,0.636301 -2.10134,0.937381 -1.18259,0.301079 -2.4583,0.301079 v 0 q -0.35695,0 -0.70148,-0.02173 -0.34764,-0.02173 -0.70459,-0.04345 v 0 q 0.24521,0.155195 0.81633,0.425235 0.56801,0.266937 1.2726,0.602159 0.70459,0.335222 1.47436,0.704588 0.77287,0.369365 1.39676,0.713899 0.62699,0.347638 1.02739,0.648717 0.40351,0.301079 0.40351,0.481106 v 0 l -0.11174,0.133469 q -0.73873,-0.536977 -1.52092,-0.937381 -0.78218,-0.403509 -1.59541,-0.760459 -0.81633,-0.35695 -1.64507,-0.692172 v 0 q -0.78219,-0.335224 -1.56437,-0.782188 v 0 q 0.76046,0.446964 1.52092,0.782186 v 0 l 1.58609,0.7139 q 0.80392,0.356949 1.57679,0.748041 0.76977,0.391094 1.48677,0.928071 v 0 l -0.29176,0.266936 q 0.15519,0.11174 0.36936,0.304184 0.21107,0.189337 0.40041,0.412819 0.19244,0.223482 0.32591,0.456276 0.13347,0.235896 0.13347,0.43765 v 0 q 0,0.288665 -0.26694,0.288665 v 0 q -0.27004,0 -0.58354,-0.155197 -0.31039,-0.155195 -0.5587,-0.245208 z m -4.87004,-8.001882 v 0 q -0.44696,0 -0.92807,0.01241 -0.4811,0.0093 -0.97152,0.0093 v 0 q 0.5587,0.02483 1.16086,0.05587 0.60526,0.03414 1.22915,0.03414 v 0 q 0.78219,0 1.53023,-0.09933 0.75114,-0.10243 1.33157,-0.425236 0.58044,-0.322807 0.92807,-0.893927 0.34454,-0.571119 0.34454,-1.508501 v 0 q 0,-0.313494 -0.0435,-0.602159 -0.0466,-0.291767 -0.11174,-0.605262 v 0 h -0.13347 q 0.13347,0.536977 0.13347,1.095681 v 0 q 0,1.005668 -0.35695,1.586098 -0.36006,0.580432 -0.96221,0.884615 -0.60216,0.30108 -1.41849,0.378677 -0.81633,0.0776 -1.73198,0.0776 z m -3.95748,0.493522 v 0 q 0.89392,0.04345 1.82199,0.05587 0.92807,0.0093 1.91201,0.0093 v 0 q 0.58043,0 1.16086,-0.03414 0.58043,-0.03104 1.11741,-0.14278 v 0 q -0.24521,0.04345 -0.49042,0.04345 v 0 h -0.46869 q -0.27004,0 -0.64871,-0.01241 -0.38179,-0.0093 -0.82875,-0.03102 -0.44696,-0.02483 -0.93738,-0.03414 -0.49042,-0.01241 -0.96221,-0.01241 v 0 q -0.51215,0 -0.93738,0.02173 -0.42524,0.02483 -0.73873,0.136572 z m -0.84737,1.719566 v 0 q 0.44696,0.580432 0.90324,1.083265 0.45938,0.502833 1.03981,0.949797 v 0 q -0.53698,-0.378677 -1.08327,-0.915654 -0.54629,-0.536976 -0.85978,-1.117408 z m 3.30566,-0.180027 v 0 q 0.44697,0.04656 0.89393,0.06829 v 0 q 0.42523,0.02173 0.80702,0.04345 v 0 q -0.3135,-0.02173 -0.62699,-0.06518 v 0 q -0.35695,-0.06829 -0.7139,-0.06829 v 0 h -0.18003 q -0.09,0 -0.18003,0.02173 z m -2.52348,-1.474358 v -0.06518 q -0.0217,0.06518 -0.12415,0.266937 -0.0993,0.201753 -0.20176,0.434547 -0.0993,0.235896 -0.18934,0.43765 -0.09,0.201755 -0.09,0.266937 v 0 l 0.0466,-0.04345 z m 2.97045,2.368284 -0.64562,-0.468691 h -0.0683 q 0.31349,0.245211 0.7139,0.468691 z m -3.35223,-0.937381 -0.0435,0.09001 q 0.0435,0.111742 0.14588,0.257624 0.0993,0.142781 0.25763,0.30108 v 0 q -0.13658,-0.158295 -0.22349,-0.325906 -0.09,-0.167611 -0.13657,-0.322808 z m 2.70661,2.414843 -0.11174,-0.06829 q 0.0652,0.04345 0.11174,0.06829 z m 18.48069,4.693114 v 0 q -0.85048,0.288663 -1.29744,0.322805 -0.44696,0.03414 -0.78218,0.05587 v 0 q -1.25088,0 -2.25655,-0.46869 -1.00566,-0.46869 -1.71956,-1.275708 -0.71701,-0.803912 -1.1081,-1.887177 -0.39109,-1.083265 -0.39109,-2.312415 v 0 q 0,-0.717002 0.13657,-1.486772 0.13347,-0.769769 0.4004,-1.520916 0.27005,-0.748043 0.69218,-1.396761 v 0 q 0.40351,-0.645613 0.96221,-1.160862 v 0 q -0.58043,0.468691 -0.98394,1.117408 v 0 q -0.42524,0.648718 -0.7139,1.396761 -0.29177,0.748043 -0.42524,1.542643 -0.13346,0.791498 -0.13346,1.530229 v 0 q 0,0.93738 0.30108,1.998918 0.30107,1.061537 0.97152,1.967879 0.67044,0.906342 1.73198,1.508501 1.06154,0.602158 2.58246,0.602158 v 0 q 0.71389,0 1.49608,-0.198649 v 0 q -0.84737,0.558703 -1.89959,0.558703 v 0 q -0.84737,0 -1.59852,-0.257624 -0.74804,-0.257625 -1.38434,-0.717004 -0.6363,-0.456275 -1.15155,-1.083264 -0.51215,-0.623887 -0.8722,-1.340889 v 0 l 0.20175,-0.176923 q -0.37867,-0.760459 -0.54628,-1.520917 -0.16762,-0.760457 -0.16762,-1.542643 v 0 q 0,-1.139136 0.32281,-2.188258 0.32591,-1.052225 0.85978,-1.989607 v 0 l 0.53698,-0.738731 q 0.13347,-0.245208 0.39109,-0.490417 0.25763,-0.24521 0.57112,-0.481106 0.3135,-0.235898 0.65803,-0.425236 0.34764,-0.189339 0.66113,-0.344534 v 0 q 0.80392,-0.403509 1.60783,-0.726314 0.80391,-0.325912 1.87787,-0.481107 v 0 l -0.09,-0.06829 q -2.05479,0.201756 -3.4857,0.996356 -1.4309,0.791498 -2.32482,1.930633 -0.89393,1.142239 -1.29744,2.49244 -0.4004,1.353306 -0.4004,2.647636 v 0 q 0,0.695275 0.12105,1.396759 0.12416,0.704588 0.36936,1.39676 v 0 q -0.5587,-1.340889 -0.5587,-2.836973 v 0 q 0,-1.474358 0.49352,-2.926989 0.49042,-1.45263 1.53954,-2.681779 v 0 q 1.34089,-1.229148 2.93009,-1.890282 1.5861,-0.658029 3.06046,-0.658029 v 0 q 0.46869,0 0.96221,0.155197 0.49042,0.158299 0.89393,0.481106 0.4004,0.32591 0.65803,0.838055 0.25762,0.515249 0.25762,1.250876 v 0 q 0,0.605262 -0.29177,1.477462 -0.28866,0.869095 -0.85978,1.685423 -0.57112,0.816328 -1.41849,1.387448 -0.85047,0.568016 -1.96788,0.568016 v 0 h -0.73562 q -0.82875,-0.176923 -1.5085,-0.412821 -0.68286,-0.235896 -1.28502,-0.369364 v 0 q -0.09,0.35695 -0.10243,0.682859 -0.009,0.322808 -0.009,0.636302 v 0 q 0,0.648717 0.14278,1.263292 0.14588,0.614574 0.45938,1.126719 0.31349,0.515249 0.7946,0.862888 0.478,0.344534 1.17328,0.434547 v 0 q 0.42213,0.09001 0.73562,0.09933 0.3135,0.01241 0.52457,0.02483 0.21416,0.0093 0.31349,0.06518 0.10243,0.05587 0.10243,0.21417 v 0 q -0.22348,0.06518 -0.45938,0.08691 -0.2359,0.02483 -0.48111,0.02483 v 0 q -0.78218,0 -1.40607,-0.257625 -0.62699,-0.257624 -1.07395,-0.592846 v 0 q 0.51525,0.515249 1.22915,0.726314 0.7139,0.211066 1.40917,0.211066 v 0 q 0.37868,0 0.78219,-0.06518 v 0 q -0.0466,0.133466 -0.0466,0.155195 v 0 q 0,0.133468 0.11174,0.180027 v 0 q 0.09,-0.02173 0.31349,-0.124156 0.22349,-0.09933 0.45938,-0.201756 0.2328,-0.09932 0.45628,-0.176923 0.22348,-0.0776 0.31349,-0.0776 v 0 q 0.11174,0 0.20176,0.03104 0.09,0.03414 0.09,0.257624 v 0 q 0,0.223481 -0.1583,0.536976 -0.1552,0.313496 -0.46869,0.626991 z m -3.08529,-8.852353 v 0 l 0.49352,0.09001 q 0.24521,0.04656 0.44696,0.04656 v 0 q 0.22349,0 0.52457,-0.145882 0.30107,-0.145885 0.60215,-0.412822 0.30419,-0.270039 0.53698,-0.670444 0.2359,-0.403509 0.34764,-0.918758 v 0 l 0.0435,-0.133468 q -0.3135,0 -0.93738,0.1583 -0.62699,0.155195 -1.29744,0.41282 -0.67044,0.257624 -1.25087,0.602158 -0.58043,0.347638 -0.80392,0.748043 v 0 q 0.33523,0.06828 0.65803,0.124156 0.32591,0.05587 0.6363,0.09933 z m -2.12308,1.319161 1.09569,0.335222 q 0.0466,-0.04345 0.0559,-0.133469 0.0124,-0.09001 0.0124,-0.133468 v 0 l -1.05223,-0.381781 z m 0.4718,5.410117 v 0 q -0.1583,-0.180028 -0.3135,-0.360055 v 0 q -0.13346,-0.155194 -0.22348,-0.310391 v 0 q 0.20176,0.378678 0.53698,0.670446 z m 20.02333,0.533871 v 0 q -0.98394,0.403509 -2.02375,0.626991 -1.03981,0.223482 -2.11066,0.223482 v 0 q -0.98394,0 -1.92132,-0.223482 -0.94049,-0.223482 -1.72267,-0.7139 -0.78219,-0.493521 -1.37504,-1.285019 -0.58974,-0.7946 -0.90323,-1.91201 v 0 q 0.0652,0.983942 0.53697,1.688528 0.46869,0.701484 1.17328,1.204317 0.70149,0.502835 1.55196,0.81633 0.85047,0.313494 1.63265,0.515249 v 0 q 0.11175,0.02173 0.31039,0.02173 v 0 q 1.31917,0 2.39312,-0.223482 1.07085,-0.223482 2.18826,-0.46869 v 0 q -0.35695,0.288663 -0.85979,0.502834 -0.50283,0.211066 -1.09568,0.356949 -0.58974,0.145884 -1.23846,0.223482 -0.64872,0.0776 -1.29743,0.0776 v 0 h -0.24521 q -0.11174,0 -0.22348,-0.02173 v 0 l -0.1552,-0.291767 q -0.80702,-0.08691 -1.67611,-0.400405 -0.8722,-0.313495 -1.59852,-0.884615 -0.72631,-0.568016 -1.20742,-1.396759 -0.4811,-0.82564 -0.4811,-1.921321 v 0 q 0,-0.915654 0.24521,-1.787853 0.24831,-0.872198 0.64872,-1.697838 v 0 q -0.0217,0.02173 -0.0652,0.02173 v 0 q -0.0683,0 -0.0683,-0.09001 v 0 q -0.40351,0.807018 -0.68287,1.666801 -0.27935,0.859783 -0.27935,1.86545 v 0 q 0,1.073953 0.49352,1.899594 0.49042,0.82564 1.17328,1.396758 0.67976,0.57112 1.39676,0.928071 v 0 q 0.64872,0.313495 1.07085,0.446961 v 0 q -0.69217,-0.201753 -1.40607,-0.58043 v 0 q -0.76046,-0.403509 -1.37503,-1.018084 -0.61457,-0.614572 -1.01808,-1.430901 -0.40041,-0.81633 -0.40041,-1.797165 v 0 q 0,-1.409175 0.51215,-2.638324 0.51525,-1.229148 1.36572,-2.13549 0.84736,-0.903238 1.95546,-1.427799 1.10499,-0.527665 2.29069,-0.527665 v 0 q 0.19865,-0.04345 0.50283,-0.05587 0.30108,-0.0093 0.50283,-0.0093 v 0 q 0.7139,0.155197 1.44022,0.378679 0.72631,0.223481 1.44021,0.626988 v 0 q -0.0869,0.04345 -0.12105,0.121053 -0.0341,0.0807 -0.0559,0.180027 -0.0217,0.09933 -0.0776,0.167611 -0.0559,0.06829 -0.19244,0.06829 v 0 q -0.11174,0 -0.33522,-0.06829 -0.22349,-0.06828 -0.62389,-0.201754 v 0 q -0.0683,0.06828 -0.0683,0.201754 v 0 q 0.53697,0.266936 0.73873,0.614574 0.20175,0.347639 0.20175,0.65803 v 0 q 0,0.158299 -0.33522,0.270041 v 0 q -0.29177,0 -0.90634,-0.111742 -0.61458,-0.111745 -1.37503,-0.111745 v 0 q -0.33523,0 -0.73563,0.03414 -0.40351,0.03104 -0.80702,0.133468 -0.4004,0.09933 -0.75735,0.288663 -0.36006,0.192443 -0.58354,0.502835 v 0 q -0.26693,0.360052 -0.49041,0.807016 -0.22349,0.446964 -0.40352,0.903237 -0.17692,0.459379 -0.27935,0.884616 -0.0993,0.422131 -0.0993,0.757353 v 0 q 0,0.313496 0.29177,0.704589 0.28867,0.391092 0.74805,0.73873 0.45627,0.344535 1.04912,0.592847 0.59284,0.245208 1.195,0.245208 v 0 q 0.29177,0 0.70459,-0.09001 0.41282,-0.09001 0.85047,-0.211066 0.43455,-0.124156 0.85978,-0.21417 0.42524,-0.09001 0.7139,-0.09001 v 0 q 0.27004,0 0.34764,0.05587 0.0776,0.05587 0.0776,0.214169 v 0 q -0.51214,0.176923 -1.07085,0.356951 v 0 q -0.36005,0.111739 -0.69527,0.223482 v 0 l 0.69527,-0.180028 q 0.53387,-0.155196 1.07085,-0.335223 v 0 q 0,0.111741 0.0124,0.201755 0.009,0.09001 0.12105,0.201753 v 0 l 0.22349,-0.09001 q 0.18002,-0.06518 0.38178,-0.176923 v 0 q 0.44696,0 0.61457,0.08691 0.16761,0.09001 0.16761,0.270041 v 0 q 0,0.11174 -0.0341,0.189339 -0.0341,0.0776 -0.09,0.155195 -0.0559,0.0807 -0.14588,0.192444 -0.0869,0.111739 -0.17693,0.310389 z m -8.11363,-2.681779 v 0 q 0.18003,0.403509 0.53698,0.772875 0.35695,0.369365 0.81633,0.648718 0.45628,0.279351 0.97152,0.456274 v 0 q 0.49042,0.180027 0.98394,0.201753 v 0 q -0.44696,-0.04345 -0.94048,-0.22348 v 0 q -0.51215,-0.180027 -0.97153,-0.459379 -0.45627,-0.279352 -0.82564,-0.636302 -0.36936,-0.35695 -0.57112,-0.760459 z m 5.14008,1.877867 v 0 q 0.0683,-0.02173 0.13347,-0.02173 v 0 q -0.0652,0 -0.13347,0.02173 z m -3.35222,1.989607 v 0 q -0.0435,0 -0.09,-0.02173 v 0 q 0.0466,0.02173 0.09,0.02173 z m 16.69593,0.403509 v 0 q -0.85047,0.288663 -1.29743,0.322805 -0.44697,0.03414 -0.78219,0.05587 v 0 q -1.25087,0 -2.25654,-0.46869 -1.00567,-0.46869 -1.72267,-1.275708 -0.7139,-0.803912 -1.10499,-1.887177 -0.3911,-1.083265 -0.3911,-2.312415 v 0 q 0,-0.717002 0.13347,-1.486772 0.13347,-0.769769 0.40351,-1.520916 0.26694,-0.748043 0.69217,-1.396761 v 0 q 0.40351,-0.645613 0.96221,-1.160862 v 0 q -0.58353,0.46869 -0.98394,1.117407 v 0 q -0.42523,0.648718 -0.717,1.396761 -0.28866,0.748043 -0.42213,1.542643 -0.13657,0.791498 -0.13657,1.530229 v 0 q 0,0.93738 0.30418,1.998918 0.30108,1.061537 0.97152,1.967879 0.67045,0.906342 1.73199,1.508501 1.06154,0.602158 2.57935,0.602158 v 0 q 0.717,0 1.49919,-0.198649 v 0 q -0.85047,0.558703 -1.8996,0.558703 v 0 q -0.85047,0 -1.59851,-0.257624 -0.74805,-0.257625 -1.38434,-0.717004 -0.63941,-0.456275 -1.15156,-1.083264 -0.51525,-0.623887 -0.87219,-1.340889 v 0 l 0.20175,-0.176923 q -0.38178,-0.760458 -0.54939,-1.520916 -0.16761,-0.760457 -0.16761,-1.542643 v 0 q 0,-1.139136 0.32591,-2.188258 0.3228,-1.052225 0.85978,-1.989607 v 0 l 0.53698,-0.738731 q 0.13347,-0.245208 0.39109,-0.490417 0.25762,-0.24521 0.56802,-0.481106 0.31349,-0.235898 0.66113,-0.425236 0.34453,-0.189339 0.65802,-0.344534 v 0 q 0.80392,-0.403509 1.61094,-0.726314 0.80391,-0.325912 1.87476,-0.481107 v 0 l -0.0869,-0.06829 q -2.0579,0.201756 -3.4888,0.996356 -1.4278,0.791498 -2.32172,1.930633 -0.89393,1.142239 -1.29744,2.49244 -0.40351,1.353306 -0.40351,2.647636 v 0 q 0,0.695275 0.12416,1.396759 0.12416,0.704588 0.36937,1.39676 v 0 Q 286.3348,22.231154 286.3348,20.73507 v 0 q 0,-1.474358 0.49042,-2.926989 0.49352,-1.45263 1.54265,-2.68178 v 0 q 1.34088,-1.229147 2.92698,-1.890281 1.5861,-0.658029 3.06356,-0.658029 v 0 q 0.46869,0 0.95911,0.155197 0.49352,0.158298 0.89393,0.481106 0.4035,0.32591 0.66113,0.838055 0.25452,0.515249 0.25452,1.250876 v 0 q 0,0.605262 -0.28866,1.477462 -0.29177,0.869095 -0.85979,1.685423 -0.57112,0.816328 -1.42159,1.387448 -0.84737,0.568016 -1.96477,0.568016 v 0 h -0.73874 q -0.82564,-0.176923 -1.5085,-0.412821 -0.67975,-0.235896 -1.28501,-0.369364 v 0 q -0.09,0.35695 -0.0993,0.682859 -0.0124,0.322808 -0.0124,0.636302 v 0 q 0,0.648717 0.14588,1.263292 0.14588,0.614574 0.45938,1.126719 0.31039,0.515249 0.7915,0.862888 0.4811,0.344534 1.17327,0.434547 v 0 q 0.42524,0.09001 0.73873,0.09933 0.3135,0.01241 0.52457,0.02483 0.21106,0.0093 0.31349,0.06518 0.0993,0.05587 0.0993,0.21417 v 0 q -0.22348,0.06518 -0.45627,0.08691 -0.2359,0.02483 -0.48111,0.02483 v 0 q -0.78219,0 -1.40918,-0.257625 -0.6239,-0.257621 -1.07087,-0.592843 v 0 q 0.51215,0.515249 1.22915,0.726314 0.7139,0.211066 1.40607,0.211066 v 0 q 0.38178,0 0.78219,-0.06518 v 0 q -0.0435,0.133466 -0.0435,0.155195 v 0 q 0,0.133468 0.11174,0.180027 v 0 q 0.09,-0.02173 0.31349,-0.124156 0.22349,-0.09933 0.45628,-0.201756 0.2359,-0.09932 0.45938,-0.176923 0.22348,-0.0776 0.31349,-0.0776 v 0 q 0.11174,0 0.19865,0.03104 0.09,0.03414 0.09,0.257624 v 0 q 0,0.223481 -0.15519,0.536976 -0.1583,0.313496 -0.46869,0.626991 z m -3.08528,-8.852353 v 0 l 0.49041,0.09001 q 0.24832,0.04656 0.44697,0.04656 v 0 q 0.22348,0 0.52766,-0.145882 0.30108,-0.145885 0.60216,-0.412822 0.30108,-0.270039 0.53698,-0.670444 0.23279,-0.403509 0.34453,-0.918758 v 0 l 0.0466,-0.133468 q -0.3135,0 -0.94049,0.1583 -0.62388,0.155195 -1.29433,0.41282 -0.67044,0.257624 -1.25087,0.602158 -0.58354,0.347638 -0.80702,0.748043 v 0 q 0.33522,0.06828 0.66114,0.124156 0.3228,0.05587 0.6363,0.09933 z m -2.12308,1.319161 1.09568,0.335222 q 0.0435,-0.04345 0.0559,-0.133469 0.009,-0.09001 0.009,-0.133468 v 0 l -1.04912,-0.381781 z m 0.46869,5.410117 v 0 q -0.15519,-0.180028 -0.31349,-0.360055 v 0 q -0.13347,-0.155194 -0.22348,-0.310391 v 0 q 0.20175,0.378678 0.53697,0.670446 z m 11.39756,8.402285 0.0683,-0.201754 q 0.0435,-1.250876 0.0652,-2.470713 0.0248,-1.216733 0.0248,-2.579349 v 0 q 0,-0.580432 -0.0248,-1.151552 -0.0217,-0.571119 -0.0652,-1.104992 v 0 2.458297 q 0,1.22915 -0.0341,2.445883 -0.0341,1.216732 -0.16761,2.402426 v 0 q -0.11174,-0.201753 -0.20176,-0.412821 -0.09,-0.21417 -0.13346,-0.459378 v 0 q 0.0435,-0.602159 0.0559,-1.104992 0.0124,-0.502834 0.0124,-1.108097 v 0 l 0.26693,-0.133468 q -0.0683,-0.46869 -0.09,-0.949797 -0.0217,-0.481104 -0.0217,-0.949796 v 0 q 0,-0.512145 0.0124,-0.993252 0.009,-0.481104 0.009,-0.996355 v 0 q 0,-0.623885 -0.0341,-1.23846 -0.031,-0.614575 -0.14278,-1.241564 v 0 h -0.0683 q 0.0435,0.940485 0.0776,1.856139 0.0341,0.915654 0.0341,1.831308 v 0 q 0,0.403507 -0.0217,0.803912 v 0 l -0.0217,0.583534 q -0.0466,-2.147905 -0.1583,-4.202693 v 0 q -0.09,-2.191363 -0.31351,-4.491359 v 0 l 0.09,-1.856139 q -0.24521,-0.02173 -0.51215,-0.02173 v 0 h -0.51525 l -0.0683,-0.515249 q 0,-0.11174 0.1583,-0.198649 0.1552,-0.09001 0.62389,-0.09001 v 0 h 0.22348 v -0.27004 q -0.73562,-0.08691 -1.14845,-0.310392 -0.41592,-0.223482 -0.41592,-0.471794 v 0 q 0,-0.223482 0.40351,-0.391093 0.40351,-0.167611 1.03981,-0.266937 0.6363,-0.09932 1.39676,-0.145882 0.76046,-0.04345 1.47436,-0.04345 v 0 q 0.78218,0 1.68852,0.04345 0.90324,0.04656 1.8189,0.223482 0.91875,0.180025 1.77854,0.549391 0.85978,0.366261 1.55195,1.027395 0.69217,0.658029 1.15155,1.654384 0.45939,0.993252 0.59285,2.424155 v 0 q 0,1.207421 -0.52456,1.97719 -0.52767,0.76977 -1.26329,1.241564 -0.73873,0.468691 -1.53023,0.670446 -0.7946,0.198649 -1.30985,0.266935 v 0 q -0.51215,0.111741 -1.18259,0.257624 -0.67045,0.145885 -1.13914,0.145885 v 0 q -0.51524,0 -0.60526,-0.11174 -0.09,-0.111742 -0.09,-0.291769 v 0 q 1.00567,-0.04346 2.01134,-0.167611 1.00566,-0.124156 2.01133,-0.434548 v 0 q -1.00567,0.24521 -2.01133,0.366263 -1.00567,0.124156 -2.01134,0.16761 v 0 q 0,-0.133468 -0.0217,-0.279352 -0.0217,-0.142779 -0.13347,-0.142779 v 0 q -0.22348,0 -0.34763,0.713899 -0.12106,0.7139 -0.17693,1.710255 -0.0559,0.993252 -0.0683,2.045476 -0.009,1.049123 -0.009,1.741295 v 0 q 0,0.313495 0.031,0.661133 0.0341,0.344534 0.0341,0.589743 v 0 q 0,0.223482 -0.0652,0.38178 -0.0683,0.155197 -0.38178,0.155197 v 0 -2.815247 q -0.0435,0.713899 -0.0559,1.409175 -0.009,0.692172 -0.009,1.406072 v 0 h -0.40351 v 0.180026 q 0,0.201755 0.0683,0.288664 v 0 q -0.24831,0.425236 -0.5587,0.425236 v 0 q -0.24831,0 -0.36937,-0.133468 -0.12415,-0.133469 -0.34763,-0.356951 z m 2.07962,-10.92887 0.1552,1.409177 h 0.31349 q 0.78219,0 1.80027,-0.09001 1.01498,-0.09001 1.90891,-0.335223 0.89392,-0.245209 1.5085,-0.692171 0.61457,-0.446964 0.61457,-1.163968 v 0 -0.176921 q 0,-0.223482 -0.0341,-0.493523 -0.031,-0.266936 -0.18936,-0.512145 v 0 q 0.0217,0.11174 0.11176,0.446962 0.09,0.335224 0.09,0.558706 v 0 q 0,0.692172 -0.48111,1.126718 -0.48111,0.437651 -1.20743,0.692172 -0.72631,0.257624 -1.58609,0.360054 -0.85978,0.09933 -1.64197,0.09933 v 0 h -0.44696 q -0.22349,0 -0.44697,-0.02173 v 0 q 0.3135,-0.245208 0.81633,-0.347638 0.50284,-0.09932 1.06154,-0.167611 0.5587,-0.06518 1.09568,-0.133468 0.53387,-0.06829 0.91565,-0.223481 v 0 l 0.13347,0.266935 q 0.78219,-0.378676 1.10499,-0.748041 0.32591,-0.369366 0.32591,-1.014979 v 0 q 0,-1.030499 -0.57112,-1.812684 -0.56801,-0.782186 -1.53022,-1.049123 v 0 l -0.0683,0.133469 q 0.82874,0.313495 1.4309,1.027396 0.60526,0.717002 0.60526,1.72267 v 0 q 0,0.536975 -0.24831,0.847367 v 0 q -0.22348,0.27004 -0.7139,0.493522 v 0 q 0.40351,-0.180027 0.60216,-0.446964 v 0 q 0.24831,-0.313495 0.33522,-0.692172 v 0 q 0,-0.940484 -0.44696,-1.589202 -0.44696,-0.645619 -1.25088,-1.036712 -0.80391,-0.391092 -1.93373,-0.558704 -1.12672,-0.16761 -2.48934,-0.16761 v 0 q 0.17692,0.959107 0.21107,2.08893 0.0341,1.12672 0.14588,2.200673 z m -2.07962,-4.289603 -0.0217,2.27827 q 0.0435,-0.04345 0.09,-0.378677 0.0435,-0.335223 0.0776,-0.726316 0.0341,-0.391093 0.0683,-0.738729 0.031,-0.347638 0.0776,-0.412821 v 0 z m 6.9062,4.491359 -0.11174,0.04345 z m 14.10108,-7.129683 v 0 q -0.20177,0 -0.54631,0.06828 -0.34763,0.06518 -0.69216,0.155195 -0.34763,0.09001 -0.627,0.180027 -0.27934,0.08691 -0.34763,0.133468 v 0 q 0.58353,-0.09001 1.07395,-0.21417 0.49043,-0.121052 1.07395,-0.121052 v 0 q -0.11173,0.201754 -0.29177,0.313496 -0.18002,0.11174 -0.39108,0.16761 -0.21108,0.05587 -0.45938,0.08691 -0.24522,0.03414 -0.51215,0.102429 v 0 l -0.1583,-0.201753 q -0.42213,0.155196 -0.64561,0.189339 -0.22348,0.03414 -0.47179,0.03414 v 0 q -0.26693,0 -0.5463,-0.01241 -0.27934,-0.0093 -0.61457,-0.0093 v 0 q 0,0.111742 -0.0217,0.176923 v 0 q 0.51214,0 0.87219,-0.0093 0.35695,-0.01241 0.8691,-0.0776 v 0 q -0.49041,0.08691 -0.85978,0.133468 -0.36937,0.04345 -0.88151,0.04345 v 0 q -0.09,0.515249 -0.15831,1.005668 -0.0652,0.493522 -0.0652,0.962212 v 0 q 0,0.266936 0.0217,0.623885 0.0217,0.360054 0.0559,0.726315 0.0341,0.369366 0.0559,0.695276 0.0217,0.322807 0.0217,0.478002 v 0 1.34089 q 0.11174,0.446963 0.64872,0.670445 0.53697,0.223482 1.54263,0.223482 v 0 h 0.71391 q 0.38177,0 0.52456,0.0807 0.14589,0.0776 0.14589,0.211066 v 0 q 0,0.11174 -0.17693,0.124158 -0.18004,0.0093 -0.36006,0.0093 v 0 q -0.6456,0 -1.36261,-0.09001 v 0 q -0.67044,-0.08691 -1.31916,-0.198651 v 0 q 0.64872,0.155196 1.36572,0.288665 v 0 q 0.73562,0.111739 1.42779,0.111739 v 0 h 0.20176 q 0.09,0 0.20175,-0.02173 v 0 q 0,0.11174 0.0124,0.201754 0.009,0.09001 0.0559,0.201753 v 0 l 0.17692,-0.04656 q 0.0683,-0.02173 0.1583,-0.03414 0.0869,-0.0093 0.13347,-0.05587 v 0 q 0.7139,0.06829 0.7139,0.493522 v 0 q 0,0.245209 -0.13346,0.400405 -0.13348,0.158299 -0.33522,0.248313 -0.20177,0.08691 -0.44698,0.121052 -0.24519,0.03414 -0.46868,0.03414 v 0 q -0.78218,0 -1.53022,-0.09932 -0.75116,-0.10243 -1.46505,-0.21417 v 0 q 0.62699,0.223482 1.5861,0.356948 0.96222,0.136573 1.94614,0.136573 v 0 q -0.24831,0.155196 -0.58353,0.24521 -0.33522,0.09001 -0.69217,0.09001 v 0 l -1.60782,-0.201754 q -0.3135,-0.04656 -0.48111,-0.09001 -0.16761,-0.04345 -0.32281,-0.09932 -0.1583,-0.05587 -0.34763,-0.124158 -0.18934,-0.06829 -0.52456,-0.155195 v 0 -0.248313 q -0.58044,-0.155196 -0.94049,-0.533873 -0.35695,-0.381781 -0.55871,-0.828744 -0.19865,-0.446962 -0.26694,-0.903238 -0.0683,-0.459378 -0.0683,-0.816329 v 0 q 0,-0.38178 0.0124,-0.704588 0.0124,-0.322806 0.0124,-0.658028 v 0 q 0,-0.248314 -0.0124,-0.62699 -0.0124,-0.378677 -0.0342,-0.803913 -0.0217,-0.425235 -0.0341,-0.872198 -0.009,-0.446964 -0.009,-0.850471 v 0 q 0,-0.24521 0.009,-0.468691 0.0124,-0.223481 0.0341,-0.400404 v 0 h -0.2235 q -0.0217,0.155194 -0.0217,0.35695 v 0 0.400403 q 0,0.648717 0.0217,1.285018 0.0217,0.639407 0.0342,1.173279 0.0124,0.536977 0.0341,0.92807 0.0217,0.391092 0.0217,0.57112 v 0 0.893925 0.176923 q -0.0683,-0.602158 -0.13348,-1.719566 v 0 q -0.0683,-1.297435 -0.0683,-2.861805 v 0 -0.400405 q 0,-0.245209 0.0124,-0.46869 0.009,-0.223482 0.0559,-0.335222 v 0 l -0.76045,-0.04655 q -0.24521,-0.155196 -0.49043,-0.245208 -0.2483,-0.09001 -0.44695,-0.09001 v 0 -0.446964 q 0,-0.133468 0.031,-0.232793 0.0341,-0.102428 0.21417,-0.102428 v 0 q 0.0435,0 0.22347,0.04656 v 0 -0.270041 q -0.2452,-0.133468 -0.40351,-0.369366 -0.15518,-0.232793 -0.15518,-0.478001 v 0 q 0,-0.583536 0.82563,-0.583536 v 0 q 0.31349,0 0.64872,0.04656 0.33522,0.04345 0.69216,0.06518 v 0 q 0.09,-0.490417 0.15831,-0.88151 0.0652,-0.391093 0.13347,-0.760459 0.0652,-0.369365 0.1552,-0.735627 0.09,-0.369364 0.22348,-0.772873 v 0 q 0.20175,-0.4469623 0.31348,-0.9715235 0.11176,-0.5245611 0.15521,-1.0398102 v 0 l 0.47179,0.021726 q 0.11173,0 0.18933,0.068287 0.0776,0.068285 0.0776,0.3134954 v 0 q 0,0.2017537 -0.0683,0.5369756 v 0 l 0.27005,0.065183 q 0.1769,-0.6021572 0.43454,-0.9839396 0.25762,-0.3786767 0.50284,-0.3786767 v 0 q 0.38178,0 0.46868,0.9622127 v 0 0.400405 q 0,0.5804303 -0.0776,1.0832643 -0.0776,0.502833 -0.18934,0.996356 -0.11174,0.490416 -0.22347,1.005665 -0.11175,0.512145 -0.20176,1.117408 v 0 q 0.49351,0.06518 0.96221,0.06518 v 0 q 0.22347,0 0.44696,-0.0093 0.22349,-0.01241 0.44697,-0.01241 v 0 q 0.22347,0 0.46869,-0.176923 0.24521,-0.180025 0.44695,-0.180025 v 0 q 0.18004,0 0.26694,0.11174 0.09,0.11174 0.09,0.245208 v 0 q -0.40042,0.111746 -0.79151,0.235902 -0.39108,0.121052 -0.75114,0.232794 v 0 q 0.36006,-0.04345 0.76045,-0.167613 0.40351,-0.121052 0.85048,-0.232792 v 0 q 0,0.11174 0.009,0.201754 0.0124,0.08691 0.0559,0.198651 v 0 q 0.0466,0 0.11174,-0.02173 v 0 q 0.13657,-0.04346 0.15831,-0.04346 v 0 q 0.22347,0.11174 0.28866,0.279353 0.0683,0.167611 0.0683,0.369364 v 0 q 0,0.155195 -0.0435,0.279353 -0.0466,0.121052 -0.0466,0.211066 z m -5.92227,8.24709 v 0 q -0.31349,-0.605262 -0.33523,-1.185694 -0.0217,-0.580431 -0.0652,-1.09568 v 0 l -0.20175,-3.395679 -0.0683,0.403509 q 0,1.496084 0.10244,2.712818 0.0993,1.219837 0.30109,1.890281 v 0 q 0,0.201755 -0.0124,0.266936 -0.009,0.06829 -0.009,0.11174 v 0 q 0,0.04656 0.0559,0.111742 0.0559,0.06829 0.2328,0.180027 z m 1.2757,-1.207421 v 0 q -0.0466,-0.180027 -0.0466,-0.378678 v 0 -1.09568 q -0.0217,0.223482 -0.0435,0.434548 -0.0217,0.21417 -0.0217,0.437652 v 0 q 0,0.58043 0.0652,0.893925 v 0 q 0.0683,0.266937 0.27005,0.446964 v 0 q -0.11174,-0.136572 -0.1583,-0.291769 v 0 q -0.0217,-0.180027 -0.0652,-0.446962 z m -2.19135,-0.180027 0.0217,0.158299 z m 2.45829,0.940484 v 0 q -0.0217,-0.02173 -0.0435,-0.02173 v 0 q 0.0217,0 0.0435,0.02173 z m 18.52725,-10.705387 0.20174,0.46869 -0.0683,0.403509 q -0.11173,1.09568 -0.13346,2.346555 v 0 q -0.0217,1.22915 -0.18003,2.480026 v 0 q 0.18003,-1.22915 0.29177,-2.414843 v 0 q 0.11173,-1.229149 0.22348,-2.411738 v 0 q 0.11174,0.356949 0.18934,0.760458 0.0776,0.400405 0.0776,0.847367 v 0 q -0.11175,1.117409 -0.20177,2.144803 -0.0869,1.030498 -0.24521,2.147906 v 0 l -0.28866,0.06518 q -0.11173,1.027394 -0.47179,2.234815 -0.35695,1.207421 -1.03671,2.234815 -0.68285,1.027394 -1.7568,1.710256 -1.07086,0.68286 -2.57004,0.68286 v 0 q -0.49043,0 -1.03671,-0.0807 -0.54939,-0.0776 -1.06154,-0.24521 -0.51524,-0.167611 -0.98394,-0.434547 -0.4687,-0.270039 -0.80392,-0.670444 v 0 l 0.0217,0.04345 v 0.02173 l -0.0217,0.02483 -0.0683,-0.02483 q 0.13347,0.201756 0.29177,0.360054 v 0 q -0.40351,-0.360054 -0.73873,-0.828744 v 0 q -0.55871,-0.760457 -0.89393,-1.80958 v 0 q -0.20175,-0.626989 -0.3135,-1.272602 -0.11173,-0.648718 -0.15518,-1.375034 -0.0466,-0.726315 -0.0559,-1.576786 -0.0124,-0.847368 -0.0124,-1.877867 v 0 q 0.20174,-0.803912 0.3135,-1.607824 0.11173,-0.803914 0.15518,-1.607826 v 0 q 0.0683,0 0.15831,-0.02483 0.09,-0.02173 0.17691,-0.02173 v 0 q 0.15831,0 0.27937,0.180027 0.12414,0.176923 0.12414,0.760458 v 0 0.198651 q 0,0.09001 -0.0217,0.201754 v 0 h 0.26694 q 0.18003,-0.937381 0.42523,-1.430903 0.24521,-0.490419 0.49042,-0.490419 v 0 q 0.18002,0 0.32591,0.502835 0.14588,0.502833 0.14588,1.576785 v 0 q 0,0.782186 -0.0466,1.586098 -0.0435,0.803914 -0.0435,1.654385 v 0 q 0,1.316059 0.12106,2.390012 0.12416,1.073953 0.4811,1.831306 0.35695,0.760459 1.01808,1.173278 0.65803,0.415926 1.71026,0.415926 v 0 q 0.8691,0 1.45264,-0.536978 0.58042,-0.536975 0.98083,-1.430903 0.40351,-0.893925 0.68285,-2.067204 0.27937,-1.173279 0.52456,-2.445881 v 0 q 0.0466,-0.360054 0.0683,-0.717004 0.0217,-0.356949 0.0217,-0.735627 v 0 -0.695276 q 0,-0.645613 0.0683,-1.092575 0.0652,-0.446964 0.37867,-0.515249 v 0 q 0,1.139134 -0.0683,2.256541 v 0 q -0.0435,1.073955 -0.17692,2.144804 v 0 q 0.1552,-1.049123 0.24521,-2.098245 v 0 q 0.09,-1.095679 0.13347,-2.234815 v 0 q 0.13346,0.08691 0.22347,0.08691 v 0 q 0.09,0 0.18004,-0.08691 v 0 -0.807016 q 0.11174,-0.400405 0.22347,-0.568016 0.11175,-0.167611 0.24521,-0.167611 v 0 q 0.13348,0 0.26694,0.133468 0.13657,0.133468 0.27005,0.335222 z m -9.02929,13.141958 v 0 q 0.53699,0.288663 1.105,0.456274 0.57111,0.167611 1.07395,0.235898 0.50283,0.06518 0.81633,0.06518 v 0 q 1.56437,0 2.66005,-0.692173 1.09258,-0.692172 1.79717,-1.731982 0.70458,-1.03981 1.08325,-2.222399 v 0 q 0.36006,-1.117408 0.53699,-2.057894 v 0 q -0.1552,0.940488 -0.49043,2.079623 v 0 q -0.38178,1.207421 -1.08326,2.256543 -0.70458,1.052226 -1.77853,1.766125 -1.07086,0.7139 -2.59177,0.7139 v 0 q -0.85048,0 -1.67611,-0.223482 -0.82564,-0.223482 -1.54264,-0.692172 v 0 q 0.0466,0.02173 0.09,0.04656 z m 8.56059,-5.50013 v 0 q 0.0652,-0.378677 0.11174,-0.735627 v 0 q 0.0435,-0.313496 0.0869,-0.626989 v 0 q -0.13347,0.983939 -0.44696,2.079618 v 0 q -0.3104,1.139136 -0.8691,2.157218 -0.55871,1.01498 -1.40917,1.797166 v 0 q -0.80392,0.738731 -1.87787,1.005667 v 0 q 0.94049,-0.201755 1.67611,-0.782186 v 0 q 0.76045,-0.602158 1.29744,-1.406072 0.53696,-0.807016 0.8815,-1.72267 0.34765,-0.915654 0.54939,-1.766125 z m -2.21309,1.564371 v 0 q -0.2452,0.493521 -0.54938,0.940485 -0.30109,0.446964 -0.67976,0.803912 v 0 q 0.4004,-0.335222 0.70458,-0.782184 0.30109,-0.446964 0.52456,-0.962213 z m -6.4375,3.8892 v 0 q -0.26694,-0.176923 -0.51215,-0.400405 v 0 q 0.24521,0.223482 0.51215,0.400405 z m 9.16274,-5.900535 0.0217,-0.155195 z m -0.28866,-1.027394 v 0 q -0.0248,0.06829 -0.0248,0.111742 v 0 q 0,-0.04345 0.0248,-0.111742 z m 7.50836,7.933595 -0.55871,0.223482 q -0.22349,0.04656 -0.49352,0.04656 v 0 h -0.64561 q -0.58354,0 -0.81633,0.133468 -0.23589,0.133469 -0.27936,0.133469 v 0 l -0.09,-0.403509 V 25.74168 l -0.11174,-2.101348 q -0.0435,-0.602159 -0.24521,-1.297435 -0.20176,-0.692172 -0.3135,-1.406071 v 0 q -0.0683,-0.46869 -0.11173,-0.893926 v 0 l -0.09,-0.872199 q -0.0435,-0.446964 -0.0993,-0.915654 -0.0559,-0.46869 -0.16761,-1.005667 v 0 q 0,-0.133469 0.009,-0.270041 0.0124,-0.133466 0.0124,-0.266935 v 0 q 0,-0.692172 -0.11176,-1.362618 -0.11173,-0.670443 -0.31349,-1.319161 v 0 q 0.15831,-0.06829 0.29177,-0.124156 0.13348,-0.05587 0.24521,-0.05587 v 0 q 0.11174,0 0.24521,0.257624 0.13346,0.257625 0.29178,1.061537 v 0 q 0.0434,0 0.13346,-0.03414 0.09,-0.03104 0.13347,-0.03104 v 0 q -0.0217,-0.38178 -0.1117,-0.816327 -0.09,-0.437652 -0.17693,-0.838057 -0.09,-0.403507 -0.16761,-0.726315 -0.0807,-0.325909 -0.0807,-0.524561 v 0 q 0,-0.04656 0.0124,-0.11174 0.0124,-0.06829 0.0993,-0.06829 v 0 q 0.11175,0 0.29177,0.24521 0.18002,0.245208 0.37867,0.626989 0.20176,0.378677 0.3911,0.816328 0.19245,0.434548 0.34765,0.813225 v 0 q 0.60215,-1.139134 1.37502,-1.731982 0.76977,-0.589743 2.02065,-0.589743 v 0 q 0.91877,0 1.49918,0.211066 0.58044,0.211065 0.90325,0.46869 0.32591,0.257624 0.43764,0.481106 v 0 l 0.13348,0.223482 q 0,0.133468 -0.13348,0.180027 v 0 q -0.58041,-0.558703 -1.31914,-0.850471 -0.73875,-0.291769 -1.52093,-0.291769 v 0 q -0.75736,0 -1.13914,0.201756 v 0 q -0.35695,0.180027 -0.76046,0.446962 v 0 q 0.42524,-0.266935 0.7822,-0.425236 v 0 q 0.38178,-0.155195 1.09568,-0.155195 v 0 q 0.78217,0 1.49918,0.30108 0.71391,0.301079 1.22915,0.772873 v 0 q -0.11173,0.04345 -0.19244,0.09933 -0.0776,0.05587 -0.0776,0.167611 v 0 q 0.11176,0 0.24522,0.145883 0.13657,0.145884 0.24832,0.344534 0.11174,0.201755 0.18933,0.415925 0.0776,0.211066 0.0776,0.344534 v 0 q 0,0.381781 -0.29177,0.381781 v 0 q -0.22348,0 -0.53387,-0.158299 v 0 q -0.0683,-0.02173 -0.27935,-0.24521 -0.21417,-0.223482 -0.52766,-0.459378 -0.31039,-0.232794 -0.71391,-0.434548 -0.40351,-0.201753 -0.89392,-0.201753 v 0 q -0.40351,0 -0.70459,0.16761 -0.30108,0.167612 -0.54629,0.446963 -0.24521,0.279352 -0.44697,0.636302 v 0 l -0.29176,0.536976 q 0.33523,-0.602159 0.73873,-1.095679 v 0 q 0.44696,-0.580432 1.1174,-0.580432 v 0 q 0.58044,0 1.07086,0.257624 0.49352,0.257625 0.80702,0.636301 v 0 q -0.3818,-0.155194 -0.89394,-0.313493 -0.51525,-0.155197 -0.98395,-0.155197 v 0 q -0.24521,0 -0.42523,0.111742 -0.18002,0.11174 -0.30107,0.279351 -0.12416,0.167611 -0.22348,0.369366 -0.10244,0.201754 -0.21418,0.378677 v 0 l -0.28866,0.04656 q -0.38178,0.645613 -0.61459,1.5085 -0.23589,0.859783 -0.23589,1.797164 v 0 q 0,0.558703 0.0559,1.005667 0.0559,0.446964 0.16761,0.915654 v 0 l 0.27005,0.695276 -0.0466,-0.648717 q -0.0435,-0.760459 -0.09,-1.353306 -0.0435,-0.592846 -0.0435,-1.306747 v 0 q 0.0435,-0.648717 0.18004,-1.229147 v 0 q 0.11173,-0.490418 0.33522,-0.915654 v 0 q -0.27005,0.536975 -0.36006,1.229148 v 0 q -0.11174,0.760459 -0.11174,1.607826 v 0 q 0,0.670445 0.0683,1.275708 0.0683,0.602158 0.16761,1.204317 0.0993,0.605263 0.21107,1.241564 0.11174,0.636301 0.18002,1.39676 v 0 l 0.0683,0.425236 z m -0.35695,-9.653161 0.0652,-0.11174 z m 13.94277,10.034944 v 0 q -0.84737,0.288663 -1.29434,0.322805 -0.44696,0.03414 -0.78218,0.05587 v 0 q -1.25088,0 -2.25655,-0.46869 -1.00566,-0.46869 -1.72267,-1.275708 -0.71389,-0.803912 -1.10499,-1.887177 -0.39109,-1.083265 -0.39109,-2.312415 v 0 q 0,-0.717002 0.13347,-1.486772 0.13346,-0.769769 0.40351,-1.520916 0.26694,-0.748043 0.69217,-1.396761 v 0 q 0.40041,-0.645613 0.9591,-1.160862 v 0 q -0.58043,0.46869 -0.98083,1.117407 v 0 q -0.42523,0.648718 -0.717,1.396761 -0.28866,0.748043 -0.42523,1.542643 -0.13348,0.791498 -0.13348,1.530229 v 0 q 0,0.93738 0.30109,1.998918 0.30418,1.061537 0.97462,1.967879 0.67045,0.906342 1.73199,1.508501 1.06152,0.602158 2.57934,0.602158 v 0 q 0.717,0 1.4992,-0.198649 v 0 q -0.85048,0.558703 -1.8996,0.558703 v 0 q -0.85048,0 -1.59851,-0.257624 -0.74804,-0.257625 -1.38745,-0.717004 -0.63631,-0.456275 -1.14845,-1.083264 -0.51525,-0.623887 -0.87219,-1.340889 v 0 l 0.20174,-0.176923 q -0.38178,-0.760459 -0.54939,-1.520917 -0.16761,-0.760457 -0.16761,-1.542643 v 0 q 0,-1.139136 0.3259,-2.188258 0.32282,-1.052225 0.8598,-1.989607 v 0 l 0.53697,-0.738731 q 0.13347,-0.245208 0.3911,-0.490417 0.25452,-0.24521 0.568,-0.481106 0.3135,-0.235898 0.66115,-0.425236 0.34452,-0.189339 0.65802,-0.344534 v 0 q 0.80392,-0.403509 1.60782,-0.726314 0.80703,-0.325912 1.87787,-0.481107 v 0 l -0.09,-0.06829 q -2.0548,0.201756 -3.48569,0.996356 -1.4309,0.791498 -2.32483,1.930633 -0.89393,1.142239 -1.29433,2.49244 -0.40351,1.353306 -0.40351,2.647636 v 0 q 0,0.695275 0.12416,1.396759 0.12105,0.704588 0.36936,1.39676 v 0 q -0.55871,-1.340889 -0.55871,-2.836973 v 0 q 0,-1.474358 0.49042,-2.926989 0.49043,-1.45263 1.54265,-2.681779 v 0 q 1.34089,-1.229148 2.92699,-1.890282 1.5861,-0.658029 3.06045,-0.658029 v 0 q 0.47179,0 0.96222,0.155197 0.49042,0.158299 0.89393,0.481106 0.4035,0.32591 0.65801,0.838055 0.25764,0.515249 0.25764,1.250876 v 0 q 0,0.605262 -0.28866,1.477462 -0.29177,0.869095 -0.86289,1.685423 -0.56803,0.816328 -1.41849,1.387448 -0.84737,0.568016 -1.96477,0.568016 v 0 h -0.73875 q -0.82562,-0.176923 -1.50849,-0.412821 -0.68286,-0.235896 -1.28502,-0.369364 v 0 q -0.09,0.35695 -0.0993,0.682859 -0.0124,0.322808 -0.0124,0.636302 v 0 q 0,0.648717 0.14587,1.263292 0.14588,0.614574 0.45629,1.126719 0.31348,0.515249 0.79459,0.862888 0.4811,0.344534 1.17327,0.434547 v 0 q 0.42525,0.09001 0.73875,0.09933 0.31039,0.01241 0.52456,0.02483 0.21106,0.0093 0.31349,0.06518 0.0993,0.05587 0.0993,0.21417 v 0 q -0.22349,0.06518 -0.45938,0.08691 -0.23281,0.02483 -0.478,0.02483 v 0 q -0.7822,0 -1.40919,-0.257625 -0.62698,-0.257624 -1.07395,-0.592846 v 0 q 0.51526,0.515249 1.22915,0.726314 0.71701,0.211066 1.40917,0.211066 v 0 q 0.37868,0 0.7822,-0.06518 v 0 q -0.0435,0.133466 -0.0435,0.155195 v 0 q 0,0.133468 0.11175,0.180027 v 0 q 0.0869,-0.02173 0.31039,-0.124156 0.22349,-0.09933 0.45938,-0.201756 0.2359,-0.09932 0.45937,-0.176923 0.22349,-0.0776 0.3104,-0.0776 v 0 q 0.11174,0 0.20175,0.03104 0.09,0.03414 0.09,0.257624 v 0 q 0,0.223481 -0.15519,0.536976 -0.15831,0.313496 -0.47179,0.626991 z m -3.08219,-8.852353 v 0 l 0.49043,0.09001 q 0.24519,0.04656 0.44695,0.04656 v 0 q 0.22349,0 0.52456,-0.145882 0.30418,-0.145885 0.60527,-0.412822 0.30107,-0.270038 0.53697,-0.670444 0.2328,-0.403508 0.34454,-0.918757 v 0 l 0.0466,-0.133469 q -0.31349,0 -0.94049,0.158301 -0.62388,0.155195 -1.29432,0.412819 -0.67045,0.257625 -1.25398,0.602159 -0.58043,0.347638 -0.80392,0.748043 v 0 q 0.33523,0.06828 0.66113,0.124156 0.32282,0.05587 0.63631,0.09933 z m -2.12308,1.319161 1.09569,0.335222 q 0.0434,-0.04345 0.0559,-0.133469 0.009,-0.09001 0.009,-0.133468 v 0 l -1.04911,-0.381781 z m 0.4687,5.410117 v 0 q -0.15521,-0.180028 -0.3135,-0.360055 v 0 q -0.13346,-0.155194 -0.22349,-0.310391 v 0 q 0.20176,0.378678 0.53699,0.670446 z m 13.83413,1.741292 -0.55871,0.223482 q -0.22347,0.04656 -0.49352,0.04656 v 0 h -0.64561 q -0.58355,0 -0.81633,0.133468 -0.2359,0.133469 -0.27935,0.133469 v 0 l -0.09,-0.403509 V 25.74168 l -0.11174,-2.101348 q -0.0435,-0.602159 -0.24521,-1.297435 -0.20174,-0.692172 -0.3135,-1.406071 v 0 q -0.0683,-0.46869 -0.11173,-0.893926 v 0 l -0.09,-0.872199 q -0.0434,-0.446964 -0.0993,-0.915654 -0.0559,-0.46869 -0.16761,-1.005667 v 0 q 0,-0.133469 0.009,-0.270041 0.0124,-0.133466 0.0124,-0.266935 v 0 q 0,-0.692172 -0.11174,-1.362618 -0.11175,-0.670443 -0.31349,-1.319161 v 0 q 0.15829,-0.06829 0.29177,-0.124156 0.13346,-0.05587 0.24519,-0.05587 v 0 q 0.11176,0 0.24522,0.257624 0.13347,0.257625 0.29177,1.061537 v 0 q 0.0434,0 0.13346,-0.03414 0.09,-0.03104 0.13347,-0.03104 v 0 q -0.0217,-0.38178 -0.11173,-0.816328 -0.09,-0.437652 -0.17693,-0.838056 -0.09,-0.403508 -0.16761,-0.726315 -0.0807,-0.32591 -0.0807,-0.524561 v 0 q 0,-0.04656 0.0124,-0.111741 0.0124,-0.06829 0.0993,-0.06829 v 0 q 0.11174,0 0.29176,0.24521 0.18004,0.245209 0.37869,0.62699 0.20175,0.378676 0.39108,0.816328 0.19245,0.434548 0.34765,0.813224 v 0 q 0.60216,-1.139134 1.37502,-1.731982 0.76977,-0.589743 2.02065,-0.589743 v 0 q 0.91876,0 1.4992,0.211066 0.58043,0.211066 0.90323,0.46869 0.3259,0.257625 0.43766,0.481107 v 0 l 0.13346,0.223482 q 0,0.133468 -0.13346,0.180027 v 0 q -0.58044,-0.558704 -1.31917,-0.850471 -0.73873,-0.291769 -1.52092,-0.291769 v 0 q -0.75734,0 -1.13913,0.201755 v 0 q -0.35694,0.180027 -0.76045,0.446962 v 0 q 0.42523,-0.266935 0.78218,-0.425235 v 0 q 0.38178,-0.155195 1.09567,-0.155195 v 0 q 0.7822,0 1.4992,0.301079 0.7139,0.301079 1.22914,0.772874 v 0 q -0.11174,0.04345 -0.19243,0.09933 -0.0776,0.05587 -0.0776,0.167611 v 0 q 0.11173,0 0.24521,0.145882 0.13657,0.145885 0.24831,0.344535 0.11173,0.201755 0.18933,0.415925 0.0776,0.211065 0.0776,0.344534 v 0 q 0,0.38178 -0.29177,0.38178 v 0 q -0.22347,0 -0.53387,-0.158298 v 0 q -0.0683,-0.02173 -0.27935,-0.245211 -0.21417,-0.223481 -0.52767,-0.459378 -0.31038,-0.232794 -0.71389,-0.434548 -0.40351,-0.201753 -0.89393,-0.201753 v 0 q -0.40351,0 -0.7046,0.167611 -0.30107,0.167611 -0.54628,0.446962 -0.24521,0.279353 -0.44695,0.636303 v 0 l -0.29178,0.536975 q 0.33522,-0.602158 0.73873,-1.095679 v 0 q 0.44697,-0.580432 1.11742,-0.580432 v 0 q 0.58041,0 1.07084,0.257625 0.49352,0.257624 0.80701,0.636301 v 0 q -0.38147,-0.155194 -0.89362,-0.313493 -0.51524,-0.155197 -0.98392,-0.155197 v 0 q -0.24521,0 -0.42525,0.111742 -0.18002,0.11174 -0.30107,0.279351 -0.12416,0.167611 -0.22349,0.369366 -0.10242,0.201754 -0.21417,0.378677 v 0 l -0.28866,0.04656 q -0.38178,0.645613 -0.61457,1.5085 -0.23589,0.859783 -0.23589,1.797164 v 0 q 0,0.558703 0.0558,1.005667 0.0559,0.446964 0.16761,0.915654 v 0 l 0.27005,0.695276 -0.0466,-0.648717 q -0.0434,-0.760459 -0.09,-1.353306 -0.0435,-0.592846 -0.0435,-1.306747 v 0 q 0.0435,-0.648717 0.18002,-1.229147 v 0 q 0.11174,-0.490418 0.33522,-0.915654 v 0 q -0.27004,0.536975 -0.36005,1.229148 v 0 q -0.11174,0.760459 -0.11174,1.607826 v 0 q 0,0.670445 0.0683,1.275708 0.0683,0.602158 0.16761,1.204317 0.0993,0.605263 0.21106,1.241564 0.11175,0.636301 0.18004,1.39676 v 0 l 0.0683,0.425236 z m -0.35695,-9.653161 0.0652,-0.11174 z"
       fill="#009688"
       id="path75"
       style="stroke-width:0.169991" />
  </g>
</svg>
